<svg xmlns="http://www.w3.org/2000/svg" width="20" height="20" viewBox="0 0 20 20">
	<g id="Group_2228" data-name="Group 2228" transform="translate(-147 -577)">
		<path id="Path_6703" data-name="Path 6703" d="M-168.5-32.285a10.012,10.012,0,0,0-10,10,10.012,10.012,0,0,0,10,10,10.012,10.012,0,0,0,10-10A10.012,10.012,0,0,0-168.5-32.285Zm-7.857,10a7.866,7.866,0,0,1,7.857-7.857,7.811,7.811,0,0,1,4.533,1.451l-3.485,3.938.723.713a2.441,2.441,0,0,1,.731,1.694,2.731,2.731,0,0,1-2.5,2.565,2.511,2.511,0,0,1-1.771-.735l-.78-.777-3.629,3.849A7.809,7.809,0,0,1-176.353-22.285Zm3.222,6.329,2.225-2.36a4.744,4.744,0,0,0,2.475.675,4.821,4.821,0,0,0,2.289-.753l2.322,2.409a7.8,7.8,0,0,1-4.676,1.558A7.8,7.8,0,0,1-173.131-15.956Zm10.842-1.53-2.337-2.424a4.972,4.972,0,0,0,.773-2.367,4.62,4.62,0,0,0-.721-2.49l2.178-2.461a7.816,7.816,0,0,1,1.757,4.943A7.81,7.81,0,0,1-162.289-17.486Z" transform="translate(325.496 609.285)" fill="rgba(255,255,255,0.87)"/>
		<rect id="Rectangle_1929" data-name="Rectangle 1929" width="20" height="20" transform="translate(147 577)" fill="none"/>
	</g>
</svg>
