<svg id="logo_medtrace_symbol" data-name="logo_medtrace symbol" xmlns="http://www.w3.org/2000/svg" xmlns:xlink="http://www.w3.org/1999/xlink" width="166.107" height="33.206" viewBox="0 0 166.107 33.206">
	<defs>
		<clipPath id="clip-path">
			<rect id="Rectangle_2153" data-name="Rectangle 2153" width="166.107" height="33.206" fill="none"/>
		</clipPath>
		<clipPath id="clip-path-3">
			<rect id="Rectangle_2151" data-name="Rectangle 2151" width="56.277" height="18.201" fill="none"/>
		</clipPath>
	</defs>
	<g id="Group_4305" data-name="Group 4305">
		<g id="Group_4304" data-name="Group 4304" clip-path="url(#clip-path)">
			<g id="Group_4303" data-name="Group 4303" transform="translate(0 0)">
				<g id="Group_4302" data-name="Group 4302" clip-path="url(#clip-path)">
					<path id="Path_6800" data-name="Path 6800" d="M468.538,67.709a7.692,7.692,0,0,1-.883,2.413,2.659,2.659,0,0,1-1.461,1.117,9.138,9.138,0,0,1-2.675.3,10.182,10.182,0,0,1-2.193-.167,1.372,1.372,0,0,1-.923-.592,2.9,2.9,0,0,1-.249-1.392v-5.9H463.3a4.055,4.055,0,0,1,1.543.22,1.228,1.228,0,0,1,.676.663,7.37,7.37,0,0,1,.345,1.407h.661V60.153h-.661a7.407,7.407,0,0,1-.345,1.434,1.168,1.168,0,0,1-.676.647,4.272,4.272,0,0,1-1.543.207h-3.145v-6.26a.774.774,0,0,1,.994-.992h2.426a6.607,6.607,0,0,1,2.289.3,2.065,2.065,0,0,1,1.13,1.007,7.948,7.948,0,0,1,.607,2.164h.717V54.252H455.495v.8a6.464,6.464,0,0,1,1.461.111.729.729,0,0,1,.538.427,3.474,3.474,0,0,1,.124,1.117V70a3.814,3.814,0,0,1-.111,1.116.7.7,0,0,1-.536.428,6.809,6.809,0,0,1-1.476.109v.8h13.457l.3-4.743Z" transform="translate(-332.284 -39.577)" fill="#fff"/>
					<path id="Path_6801" data-name="Path 6801" d="M404.319,69.008a4.577,4.577,0,0,1-1.668,1.379,6,6,0,0,1-2.771.565,5.1,5.1,0,0,1-3.474-1.2,6.878,6.878,0,0,1-2.013-3.143,13.392,13.392,0,0,1-.635-4.179,13.963,13.963,0,0,1,.552-3.86,7.291,7.291,0,0,1,1.917-3.268,5,5,0,0,1,3.654-1.337q4.19,0,5.322,4.357h.744l-.275-4.964h-.745l-.082.3a.649.649,0,0,1-.663.387,2.714,2.714,0,0,1-.937-.276,13.589,13.589,0,0,0-1.627-.538,7.811,7.811,0,0,0-1.931-.207,8.363,8.363,0,0,0-6.521,2.565,10.149,10.149,0,0,0-2.33,7.087,9.623,9.623,0,0,0,2.248,6.756,8.216,8.216,0,0,0,6.384,2.455,6.592,6.592,0,0,0,4.453-1.3,7.518,7.518,0,0,0,2.137-3.116l-.689-.359a10.445,10.445,0,0,1-1.048,1.889" transform="translate(-285.115 -38.683)" fill="#fff"/>
					<path id="Path_6802" data-name="Path 6802" d="M354.069,70.132l-5.764-15.884h-2.558l3.744,10.369h-5.433l-.358.938h6.122l1.737,4.853a1.913,1.913,0,0,1,.083.551q0,.689-.8.69H349.8v.8h6.314v-.8a2.423,2.423,0,0,1-1.365-.276,2.5,2.5,0,0,1-.676-1.241" transform="translate(-250.73 -39.574)" fill="#fff"/>
					<path id="Path_6803" data-name="Path 6803" d="M283.548,62.909h-1.738V56.237a.915.915,0,0,1,.318-.787,2.588,2.588,0,0,1,1.365-.235,4.478,4.478,0,0,1,3.116.938,3.79,3.79,0,0,1,1.021,2.923,3.8,3.8,0,0,1-.993,2.909,4.413,4.413,0,0,1-3.088.923m6.921,8.011a4.83,4.83,0,0,1-.772-2.275l-.165-1.021a6.8,6.8,0,0,0-.979-2.868,3.764,3.764,0,0,0-2.082-1.35v-.056a5.4,5.4,0,0,0,2.854-1.572,4.315,4.315,0,0,0,1.061-3.033,3.9,3.9,0,0,0-1.543-3.365,7.121,7.121,0,0,0-4.275-1.13H277.15v.8a5.72,5.72,0,0,1,1.419.124.823.823,0,0,1,.565.428,2.669,2.669,0,0,1,.138,1.02V70.108a2.86,2.86,0,0,1-.124.992.782.782,0,0,1-.565.427,5.89,5.89,0,0,1-1.434.124v.8h6.921v-.8a7.411,7.411,0,0,1-1.517-.11.8.8,0,0,1-.607-.428,2.7,2.7,0,0,1-.138-1.005V63.9h1.682a3.272,3.272,0,0,1,2.166.62,3.425,3.425,0,0,1,1.007,2l.662,3.392a4.808,4.808,0,0,0,1.1,2.537h4.664l.279-.8c-.7,0-2.16.077-2.9-.731" transform="translate(-202.181 -39.576)" fill="#fff"/>
					<path id="Path_6804" data-name="Path 6804" d="M214.774,58.717h.716a9.621,9.621,0,0,1,.579-2.248,1.893,1.893,0,0,1,1.075-1.02,6.591,6.591,0,0,1,2.262-.291H220.9V70a3.112,3.112,0,0,1-.138,1.117.834.834,0,0,1-.647.427,10.082,10.082,0,0,1-1.835.111v.8h7.777v-.8a9.848,9.848,0,0,1-1.792-.111.886.886,0,0,1-.676-.427A2.843,2.843,0,0,1,223.432,70V55.159h1.517a6.367,6.367,0,0,1,2.22.291,1.949,1.949,0,0,1,1.075,1.02,9.031,9.031,0,0,1,.593,2.248h.716V54.249h-14.78Z" transform="translate(-156.678 -39.575)" fill="#fff"/>
					<g id="Group_4301" data-name="Group 4301" transform="translate(0 14.674)" opacity="0.7">
						<g id="Group_4300" data-name="Group 4300">
							<g id="Group_4299" data-name="Group 4299" clip-path="url(#clip-path-3)">
								<path id="Path_6805" data-name="Path 6805" d="M151.921,71.541a5.8,5.8,0,0,1-1.572-.165,1.289,1.289,0,0,1-.8-.621,2.857,2.857,0,0,1-.249-1.337V56.539a1.631,1.631,0,0,1,.194-.91,1.086,1.086,0,0,1,.772-.358,14.984,14.984,0,0,1,1.9-.083,6.05,6.05,0,0,1,5.06,2.124,9.383,9.383,0,0,1,1.614,5.845q0,8.384-6.923,8.384m.91-17.291h-8.19v.8a6.551,6.551,0,0,1,1.461.111.73.73,0,0,1,.538.427,3.475,3.475,0,0,1,.124,1.117V70a3.89,3.89,0,0,1-.109,1.117.7.7,0,0,1-.538.427,6.769,6.769,0,0,1-1.476.111v.8h7.528q4.6,0,7.114-2.386t2.509-7.019q0-4.274-2.315-6.507a9.382,9.382,0,0,0-6.646-2.289" transform="translate(-105.516 -54.25)" fill="#fff"/>
								<path id="Path_6806" data-name="Path 6806" d="M97.78,70.121a2.661,2.661,0,0,1-1.462,1.117,9.122,9.122,0,0,1-2.675.3,10.2,10.2,0,0,1-2.192-.167,1.369,1.369,0,0,1-.923-.592,2.889,2.889,0,0,1-.249-1.392v-5.9h3.143a4.057,4.057,0,0,1,1.545.22,1.231,1.231,0,0,1,.676.663,7.4,7.4,0,0,1,.344,1.406h.663V60.152h-.663a7.431,7.431,0,0,1-.344,1.434,1.171,1.171,0,0,1-.676.647,4.273,4.273,0,0,1-1.545.207H90.279v-6.26a.773.773,0,0,1,.992-.992H93.7a6.593,6.593,0,0,1,2.288.3A2.071,2.071,0,0,1,97.118,56.5a8.038,8.038,0,0,1,.607,2.164h.716V54.251H85.619v.8a6.477,6.477,0,0,1,1.461.111.727.727,0,0,1,.537.427,3.427,3.427,0,0,1,.125,1.117V70a3.871,3.871,0,0,1-.11,1.116.7.7,0,0,1-.538.428,6.774,6.774,0,0,1-1.475.11v.8H99.076l.3-4.742h-.716a7.7,7.7,0,0,1-.883,2.413" transform="translate(-62.459 -54.25)" fill="#fff"/>
								<path id="Path_6807" data-name="Path 6807" d="M10.452,67.789h-.027L4.853,54.249H0v.8a6.963,6.963,0,0,1,1.407.137.784.784,0,0,1,.552.414A2.716,2.716,0,0,1,2.1,56.622V70.188a2.019,2.019,0,0,1-.233,1.172A1.384,1.384,0,0,1,.8,71.65H0v.8H5.542v-.8H4.523a2.941,2.941,0,0,1-.952-.111.537.537,0,0,1-.358-.387,4.576,4.576,0,0,1-.069-.965V56.731H3.2l6.2,15h.5l6.123-15h.055V70.106a2.828,2.828,0,0,1-.125.992.781.781,0,0,1-.564.427,6,6,0,0,1-1.462.125v.8h6.728v-.8a6.2,6.2,0,0,1-1.392-.111.775.775,0,0,1-.565-.427,2.684,2.684,0,0,1-.138-1.007V56.622A2.681,2.681,0,0,1,18.7,55.6a.778.778,0,0,1,.551-.414,6.963,6.963,0,0,1,1.406-.137v-.8H16.022Z" transform="translate(0 -54.249)" fill="#fff"/>
							</g>
						</g>
					</g>
					<path id="Path_6808" data-name="Path 6808" d="M562.293,8.257c0,1.785-.474,4.071-1.422,5.1a6.851,6.851,0,0,1-8.679,0c-.948-1.032-1.422-3.318-1.422-5.1s.474-4.066,1.422-5.088a6.91,6.91,0,0,1,8.679,0c.948,1.022,1.422,3.3,1.422,5.088m2.469-.008c0-2.551-.57-4.6-1.924-6.059S559.31,0,556.532,0s-4.952.731-6.306,2.19S548.3,5.7,548.3,8.249a8.663,8.663,0,0,0,1.925,6.084c1.354,1.476,3.527,2.214,6.306,2.214s4.951-.738,6.305-2.214a8.665,8.665,0,0,0,1.924-6.084" transform="translate(-399.986 0)" fill="#fff"/>
					<path id="Path_6809" data-name="Path 6809" d="M582.115,83.441a6.17,6.17,0,0,0-1.386-4.362,7.324,7.324,0,0,0-9.08,0,6.171,6.171,0,0,0-1.385,4.362,6.236,6.236,0,0,0,1.385,4.379,7.259,7.259,0,0,0,9.08,0,6.234,6.234,0,0,0,1.386-4.379" transform="translate(-416.008 -56.538)" fill="#fff"/>
					<path id="Path_6810" data-name="Path 6810" d="M548.392,69.309a2.8,2.8,0,0,0-.628-1.978,3.323,3.323,0,0,0-4.117,0,2.8,2.8,0,0,0-.628,1.978,2.825,2.825,0,0,0,.628,1.986,3.293,3.293,0,0,0,4.117,0,2.831,2.831,0,0,0,.628-1.986" transform="translate(-396.133 -48.596)" fill="#fff"/>
				</g>
			</g>
		</g>
	</g>
</svg>
